<svg width="21" height="27" viewBox="0 0 21 27" fill="none" xmlns="http://www.w3.org/2000/svg">
<path d="M18.5 0H6.5C5.83696 0 5.20107 0.263392 4.73223 0.732233C4.26339 1.20107 4 1.83696 4 2.5V5H2.5C1.83696 5 1.20107 5.26339 0.732233 5.73223C0.263392 6.20107 7.29274e-09 6.83696 7.29274e-09 7.5V25.5C-2.76158e-05 25.7802 0.0784177 26.0548 0.226448 26.2927C0.374478 26.5305 0.586174 26.7222 0.837552 26.8459C1.08893 26.9697 1.36994 27.0205 1.64874 26.9928C1.92754 26.965 2.19298 26.8597 2.415 26.6887L8 22.3925L13.5863 26.6887C13.8083 26.8593 14.0736 26.9643 14.3522 26.9919C14.6308 27.0195 14.9116 26.9685 15.1627 26.8448C15.4139 26.7211 15.6254 26.5296 15.7734 26.292C15.9213 26.0543 15.9998 25.78 16 25.5V19.7L18.585 21.6887C18.807 21.8597 19.0725 21.965 19.3513 21.9928C19.6301 22.0205 19.9111 21.9697 20.1624 21.8459C20.4138 21.7222 20.6255 21.5305 20.7736 21.2927C20.9216 21.0548 21 20.7802 21 20.5V2.5C21 1.83696 20.7366 1.20107 20.2678 0.732233C19.7989 0.263392 19.163 0 18.5 0ZM13 22.4537L8.91375 19.3112C8.65157 19.1096 8.33011 19.0003 7.99938 19.0003C7.66864 19.0003 7.34718 19.1096 7.085 19.3112L3 22.4537V8H13V22.4537ZM18 17.4537L16 15.9162V7.5C16 6.83696 15.7366 6.20107 15.2678 5.73223C14.7989 5.26339 14.163 5 13.5 5H7V3H18V17.4537Z" fill="white"/>
</svg>
