<svg width="32" height="30" viewBox="0 0 32 30" fill="none" xmlns="http://www.w3.org/2000/svg">
<g filter="url(#filter0_d_18_361)">
<path d="M13.5 8C13.5 7.60444 13.6173 7.21776 13.8371 6.88886C14.0568 6.55996 14.3692 6.30362 14.7346 6.15224C15.1001 6.00087 15.5022 5.96126 15.8902 6.03843C16.2781 6.1156 16.6345 6.30608 16.9142 6.58579C17.1939 6.86549 17.3844 7.22186 17.4616 7.60982C17.5387 7.99778 17.4991 8.39991 17.3478 8.76537C17.1964 9.13082 16.94 9.44318 16.6111 9.66294C16.2822 9.8827 15.8956 10 15.5 10C14.9696 10 14.4609 9.78929 14.0858 9.41421C13.7107 9.03914 13.5 8.53043 13.5 8ZM29.5 13.5C29.5 16.17 28.7082 18.7801 27.2248 21.0002C25.7414 23.2203 23.633 24.9506 21.1662 25.9724C18.6994 26.9942 15.985 27.2615 13.3663 26.7406C10.7475 26.2197 8.34207 24.934 6.45406 23.0459C4.56606 21.1579 3.28031 18.7525 2.7594 16.1337C2.2385 13.515 2.50585 10.8006 3.52763 8.33377C4.54942 5.86697 6.27974 3.75856 8.49981 2.27516C10.7199 0.791761 13.33 0 16 0C19.5792 0.00397028 23.0107 1.42756 25.5416 3.95844C28.0724 6.48932 29.496 9.9208 29.5 13.5ZM26.5 13.5C26.5 11.4233 25.8842 9.39323 24.7304 7.66651C23.5767 5.9398 21.9368 4.59399 20.0182 3.79926C18.0996 3.00454 15.9884 2.79661 13.9516 3.20175C11.9148 3.6069 10.0438 4.60693 8.57538 6.07538C7.10693 7.54383 6.10691 9.41475 5.70176 11.4516C5.29662 13.4884 5.50455 15.5996 6.29927 17.5182C7.09399 19.4368 8.4398 21.0767 10.1665 22.2304C11.8932 23.3842 13.9233 24 16 24C18.7839 23.997 21.4529 22.8898 23.4213 20.9213C25.3898 18.9528 26.497 16.2839 26.5 13.5ZM17.5 18.085V14C17.5 13.337 17.2366 12.7011 16.7678 12.2322C16.2989 11.7634 15.663 11.5 15 11.5C14.6458 11.4995 14.3028 11.6243 14.0318 11.8525C13.7608 12.0806 13.5792 12.3973 13.5194 12.7464C13.4595 13.0956 13.5251 13.4546 13.7046 13.76C13.8841 14.0654 14.1658 14.2974 14.5 14.415V18.5C14.5 19.163 14.7634 19.7989 15.2322 20.2678C15.7011 20.7366 16.337 21 17 21C17.3542 21.0005 17.6972 20.8757 17.9682 20.6475C18.2392 20.4194 18.4208 20.1027 18.4806 19.7536C18.5405 19.4044 18.4749 19.0454 18.2954 18.74C18.116 18.4346 17.8342 18.2026 17.5 18.085Z" fill="white"/>
</g>
<defs>
<filter id="filter0_d_18_361" x="-1.5" y="0" width="35" height="35" filterUnits="userSpaceOnUse" color-interpolation-filters="sRGB">
<feFlood flood-opacity="0" result="BackgroundImageFix"/>
<feColorMatrix in="SourceAlpha" type="matrix" values="0 0 0 0 0 0 0 0 0 0 0 0 0 0 0 0 0 0 127 0" result="hardAlpha"/>
<feOffset dy="4"/>
<feGaussianBlur stdDeviation="2"/>
<feComposite in2="hardAlpha" operator="out"/>
<feColorMatrix type="matrix" values="0 0 0 0 0 0 0 0 0 0 0 0 0 0 0 0 0 0 0.25 0"/>
<feBlend mode="normal" in2="BackgroundImageFix" result="effect1_dropShadow_18_361"/>
<feBlend mode="normal" in="SourceGraphic" in2="effect1_dropShadow_18_361" result="shape"/>
</filter>
</defs>
</svg>
